<?xml version="1.0" encoding="utf-8"?>
<svg fill="#000000" width="800px" height="800px" viewBox="0 0 24 24" xmlns="http://www.w3.org/2000/svg">
  <path fill-rule="evenodd" d="M 12 5 C 12.385 5 12.7 5.313 12.7 5.7 L 12.7 6.443 C 15.234 6.76 17.241 8.767 17.557 11.3 L 18.3 11.3 C 18.686 11.3 19 11.613 19 12 C 19 12.387 18.686 12.7 18.3 12.7 L 17.556 12.701 C 17.241 15.233 15.233 17.24 12.7 17.556 L 12.7 18.3 C 12.7 18.687 12.385 19 12 19 C 11.615 19 11.3 18.687 11.3 18.3 L 11.3 17.556 C 8.767 17.24 6.759 15.233 6.444 12.701 L 5.7 12.7 C 5.314 12.7 5 12.387 5 12 C 5 11.613 5.314 11.3 5.7 11.3 L 6.444 11.3 C 6.759 8.767 8.767 6.759 11.3 6.443 L 11.3 5.7 C 11.3 5.313 11.615 5 12 5 Z M 12 7.8 C 9.681 7.8 7.8 9.68 7.8 12 C 7.8 14.32 9.681 16.2 12 16.2 C 14.319 16.2 16.2 14.32 16.2 12 C 16.2 9.68 14.319 7.8 12 7.8 Z M 12 9.2 C 13.547 9.2 14.8 10.454 14.8 12 C 14.8 13.546 13.547 14.8 12 14.8 C 10.453 14.8 9.2 13.546 9.2 12 C 9.2 10.454 10.453 9.2 12 9.2 Z" style="fill: rgb(255, 255, 255);"/>
  <rect style="fill: rgba(255, 255, 255, 0); stroke-width: 2px; stroke: rgb(255, 255, 255);" y="1" width="22" height="22" x="1"/>
</svg>